<svg width="180" height="120" viewBox="0 0 180 120" xmlns="http://www.w3.org/2000/svg" role="img" aria-label="Flag of India">
  <rect width="180" height="120" fill="#fff"/>
  <rect width="180" height="40.00" y="0" fill="#FF9933"/>
  <rect width="180" height="40.00" y="80.00" fill="#138808"/>
  <g stroke="#06038D" stroke-width="0.7"><line x1="90.0" y1="60.0" x2="108.00" y2="60.00"/><line x1="90.0" y1="60.0" x2="107.39" y2="64.66"/><line x1="90.0" y1="60.0" x2="105.59" y2="69.00"/><line x1="90.0" y1="60.0" x2="102.73" y2="72.73"/><line x1="90.0" y1="60.0" x2="99.00" y2="75.59"/><line x1="90.0" y1="60.0" x2="94.66" y2="77.39"/><line x1="90.0" y1="60.0" x2="90.00" y2="78.00"/><line x1="90.0" y1="60.0" x2="85.34" y2="77.39"/><line x1="90.0" y1="60.0" x2="81.00" y2="75.59"/><line x1="90.0" y1="60.0" x2="77.27" y2="72.73"/><line x1="90.0" y1="60.0" x2="74.41" y2="69.00"/><line x1="90.0" y1="60.0" x2="72.61" y2="64.66"/><line x1="90.0" y1="60.0" x2="72.00" y2="60.00"/><line x1="90.0" y1="60.0" x2="72.61" y2="55.34"/><line x1="90.0" y1="60.0" x2="74.41" y2="51.00"/><line x1="90.0" y1="60.0" x2="77.27" y2="47.27"/><line x1="90.0" y1="60.0" x2="81.00" y2="44.41"/><line x1="90.0" y1="60.0" x2="85.34" y2="42.61"/><line x1="90.0" y1="60.0" x2="90.00" y2="42.00"/><line x1="90.0" y1="60.0" x2="94.66" y2="42.61"/><line x1="90.0" y1="60.0" x2="99.00" y2="44.41"/><line x1="90.0" y1="60.0" x2="102.73" y2="47.27"/><line x1="90.0" y1="60.0" x2="105.59" y2="51.00"/><line x1="90.0" y1="60.0" x2="107.39" y2="55.34"/></g>
  <circle cx="90.0" cy="60.0" r="18.00" fill="none" stroke="#06038D" stroke-width="1.1"/>
  <circle cx="90.0" cy="60.0" r="2.88" fill="#06038D"/>
</svg>
